<?xml version="1.0" encoding="UTF-8"?>
<svg xmlns="http://www.w3.org/2000/svg"  viewBox="0 0 100 100" width="100px" height="100px">
  <defs>
    <style>
      .cls-1 {
        fill: #fff;
      }

      .cls-2 {
        fill: #4a254b;
      }

      .cls-3 {
        fill: #fec933;
      }

      .cls-4 {
        fill: #b55e67;
      }
    </style>
  </defs>
  <path class="cls-3" d="m79.76,52.31c-.34,0-.67.03-1,.07-.97-18.67-13.47-33.44-28.75-33.44s-27.79,14.77-28.75,33.44c-.33-.04-.66-.07-1-.07-4.25,0-7.7,3.45-7.7,7.7s3.45,7.7,7.7,7.7c.97,0,1.89-.19,2.75-.51,4.08,13.59,14.63,23.26,27.01,23.26s22.92-9.68,27.01-23.26c.85.33,1.78.51,2.75.51,4.25,0,7.7-3.45,7.7-7.7s-3.45-7.7-7.7-7.7Z"/>
  <path class="cls-2" d="m19.97,61.37c-.12,0-.25-.05-.34-.14-.2-.19-.21-.51-.02-.71l.94-.99-2.35-1.2c-.25-.13-.34-.43-.22-.67.12-.25.43-.34.67-.22l2.95,1.5c.14.07.24.21.27.36.03.16-.02.31-.13.43l-1.4,1.48c-.1.1-.23.16-.36.16Z"/>
  <path class="cls-2" d="m80.03,61.37c-.13,0-.26-.05-.36-.16l-1.4-1.48c-.11-.11-.16-.27-.13-.43.03-.16.13-.29.27-.36l2.95-1.5c.24-.12.55-.03.67.22.12.25.03.55-.22.67l-2.35,1.2.94.99c.19.2.18.52-.02.71-.1.09-.22.14-.34.14Z"/>
  <path class="cls-4" d="m33.51,34.92c-1.2,4.25-10.53,18.17-12.69,17.56-2.02-.57-2.86-17.34-1.66-21.6s5.38-6.8,9.34-5.68c3.96,1.12,6.2,5.47,5.01,9.72Z"/>
  <path class="cls-4" d="m66.49,34.92c1.2,4.25,10.53,18.17,12.69,17.56,2.02-.57,2.86-17.34,1.66-21.6-1.2-4.25-5.38-6.8-9.34-5.68-3.96,1.12-6.2,5.47-5.01,9.72Z"/>
  <circle class="cls-1" cx="38.5" cy="60.88" r="6.5"/>
  <circle class="cls-2" cx="38.5" cy="60.88" r="2.95"/>
  <circle class="cls-1" cx="64.5" cy="60.88" r="6.5"/>
  <circle class="cls-2" cx="64.5" cy="60.88" r="2.95"/>
  <path class="cls-2" d="m50.81,79.43c3.7,0,6.75-2.79,7.17-6.38.05-.44-.27-.83-.71-.83-2.49,0-10.42,0-12.91,0-.44,0-.76.39-.71.83.41,3.59,3.46,6.38,7.17,6.38Z"/>
  <path class="cls-4" d="m79.38,19.65c-4.1-2.71-8.73-4.61-13.62-5.54.05-.38.1-.77.14-1.15.11-1.24-.72-2.36-1.93-2.62-10.05-2.11-20.91-.1-29.83,6.48-5.45,4.02-9.49,9.25-12.02,15.04-.78,1.79,2.39,4.63,7.05,6.83,8.06,4.38,17.73,5.82,27.3,3.3,10.71-2.82,19.08-10.03,23.74-19.18.56-1.11.21-2.47-.83-3.15Z"/>
  <path class="cls-2" d="m62.33,40.72c-.19,0-.38-.11-.46-.3-.11-.25,0-.55.26-.66,6.93-3.03,12.68-8.08,16.63-14.58.14-.24.45-.31.69-.17.24.14.31.45.17.69-4.06,6.68-9.97,11.86-17.09,14.98-.07.03-.13.04-.2.04Z"/>
</svg>