<svg width="16" height="21" viewBox="0 0 16 21" fill="none" xmlns="http://www.w3.org/2000/svg">
<path d="M13.8642 6.93208H12.8739V4.95148C12.8739 2.21826 10.6556 0 7.92237 0C5.18915 0 2.97089 2.21826 2.97089 4.95148V6.93208H1.98059C0.891267 6.93208 0 7.82334 0 8.91267V18.8156C0 19.905 0.891267 20.7962 1.98059 20.7962H13.8642C14.9535 20.7962 15.8447 19.905 15.8447 18.8156V8.91267C15.8447 7.82334 14.9535 6.93208 13.8642 6.93208ZM7.92237 15.8447C6.83305 15.8447 5.94178 14.9535 5.94178 13.8642C5.94178 12.7748 6.83305 11.8836 7.92237 11.8836C9.0117 11.8836 9.90296 12.7748 9.90296 13.8642C9.90296 14.9535 9.0117 15.8447 7.92237 15.8447ZM10.9923 6.93208H4.85245V4.95148C4.85245 3.25808 6.22896 1.88156 7.92237 1.88156C9.61578 1.88156 10.9923 3.25808 10.9923 4.95148V6.93208Z" fill="#0060AB"/>
</svg>
