<svg width="22" height="19" viewBox="0 0 22 19" fill="none" xmlns="http://www.w3.org/2000/svg">
<path d="M0 8.41752C0 8.41752 4.14736 2.47574 10.8933 2.47574C11.8311 2.47574 12.7144 2.59557 13.5453 2.79462L7.28858 9.05131C7.05502 8.54165 6.93346 7.98785 6.93208 7.42722C6.93208 6.49932 7.26382 5.65756 7.79859 4.98218C5.4298 5.7863 3.62548 7.34404 2.59557 8.41752C3.47291 9.33286 4.46481 10.131 5.54665 10.7923L4.10775 12.2312C1.48247 10.5269 0 8.41752 0 8.41752ZM21.7865 8.41752C21.7865 8.41752 17.6392 14.3593 10.8933 14.3593C9.95644 14.3593 9.07508 14.2365 8.24323 14.0394L3.96119 18.3205L2.47574 16.835L19.3108 0L20.7962 1.48544L17.6798 4.60191C20.3021 6.3072 21.7865 8.41752 21.7865 8.41752ZM19.1969 8.42346C18.318 7.5056 17.3237 6.70569 16.2389 6.04378L14.8544 7.42722C14.8544 8.4778 14.4371 9.48534 13.6942 10.2282C12.9514 10.9711 11.9438 11.3884 10.8933 11.3884L9.95545 12.3262C10.2624 12.3569 10.5734 12.3787 10.8933 12.3787C14.8327 12.3787 17.7689 9.92475 19.1969 8.42346Z" fill="#0060AB"/>
</svg>
